<svg width="12" height="12" viewBox="0 0 12 12" fill="none" xmlns="http://www.w3.org/2000/svg">
  <path d="M2 10V4C2 3.725 2.098 3.48967 2.294 3.294C2.49 3.09833 2.72533 3.00033 3 3H9C9.275 3 9.5105 3.098 9.7065 3.294C9.9025 3.49 10.0003 3.72533 10 4V10C10 10.275 9.90217 10.5105 9.7065 10.7065C9.51083 10.9025 9.27533 11.0003 9 11H3C2.725 11 2.48967 10.9022 2.294 10.7065C2.09833 10.5108 2.00033 10.2753 2 10ZM3 9H9V5H3V9ZM4 7C4 6.725 4.09783 6.48967 4.2935 6.294C4.48917 6.09833 4.72467 6.00033 5 6C5.27533 5.99967 5.51067 6.0975 5.706 6.294C5.90133 6.4905 5.99933 6.726 6 7C6.00067 7.274 5.90283 7.50933 5.706 7.706C5.50917 7.90267 5.27367 8.00067 5 8C4.72633 7.99933 4.49117 7.90133 4.2945 7.706C4.09783 7.51067 3.99983 7.27533 4 7ZM5 2H7V3H5V2Z" fill="#0A4B70"/>
  <path d="M8 1H4V0H8V1Z" fill="#0A4B70"/>
</svg>