<svg width="12" height="12" viewBox="0 0 12 12" fill="none" xmlns="http://www.w3.org/2000/svg">
  <path d="M2 9.5V3.5C2 3.225 2.098 2.98967 2.294 2.794C2.49 2.59833 2.72533 2.50033 3 2.5H9C9.275 2.5 9.5105 2.598 9.7065 2.794C9.9025 2.99 10.0003 3.22533 10 3.5V9.5C10 9.775 9.90217 10.0105 9.7065 10.2065C9.51083 10.4025 9.27533 10.5003 9 10.5H3C2.725 10.5 2.48967 10.4022 2.294 10.2065C2.09833 10.0108 2.00033 9.77533 2 9.5ZM3 8.5H9V5.5H3V8.5ZM3 4.5H9V3.5H3V4.5ZM4.5 7.5C4.5 7.225 4.59783 6.98967 4.7935 6.794C4.98917 6.59833 5.22467 6.50033 5.5 6.5C5.77533 6.49967 6.01067 6.5975 6.206 6.794C6.40133 6.9905 6.49933 7.226 6.5 7.5C6.50067 7.774 6.40283 8.00933 6.206 8.206C6.00917 8.40267 5.77367 8.50067 5.5 8.5C5.22633 8.49933 4.99117 8.40133 4.7945 8.206C4.59783 8.01067 4.49983 7.77533 4.5 7.5Z" fill="#0A4B70"/>
  <path d="M7 2H5V1.5C5 1.225 5.098 0.989667 5.294 0.794C5.49 0.598333 5.72533 0.500333 6 0.5C6.27467 0.499667 6.51 0.597667 6.706 0.794C6.902 0.990333 7 1.22567 7 1.5V2Z" fill="#0A4B70"/>
</svg>